<?xml version="1.0" encoding="utf-8"?>
<!-- Generator: Adobe Illustrator 18.0.0, SVG Export Plug-In . SVG Version: 6.00 Build 0)  -->
<!DOCTYPE svg PUBLIC "-//W3C//DTD SVG 1.1//EN" "http://www.w3.org/Graphics/SVG/1.1/DTD/svg11.dtd">
<svg width="26px" height="36px" version="1.1" id="Layer_1" xmlns="http://www.w3.org/2000/svg" xmlns:xlink="http://www.w3.org/1999/xlink" x="0px" y="0px"
	 viewBox="0 0 13 18" enable-background="new 0 0 13 18" xml:space="preserve">
<g>
	<path fill="#FFFFFF" d="M6.6,0L0.1,3.2L0,11l6.6,7l6.4-7V3.5L6.6,0z M12.2,11.3L6.6,17l-5.9-5.9l0.1-7.4l5.8-2.4l5.7,2.6L12.2,11.3
		z"/>
	<path fill="#FFFFFF" d="M2,5v6l4.6,4l4.4-4V5L6.5,2L2,5z M8.5,6.1l-1.5,4.4l2-0.9l-2.7,5.6l0.9-4.1l-2,0.9l1.2-4.1L3.9,8.8l1.5-5
		l1-0.4l1,0.4l-1.1,3L8.5,6.1z"/>
</g>
</svg>
