<?xml version="1.0" encoding="utf-8"?>
<!-- Generator: Adobe Illustrator 18.0.0, SVG Export Plug-In . SVG Version: 6.00 Build 0)  -->
<!DOCTYPE svg PUBLIC "-//W3C//DTD SVG 1.1//EN" "http://www.w3.org/Graphics/SVG/1.1/DTD/svg11.dtd">
<svg width="26px" height="32px" version="1.1" id="Layer_1" xmlns="http://www.w3.org/2000/svg" xmlns:xlink="http://www.w3.org/1999/xlink" x="0px" y="0px"
	 viewBox="0 0 13 16" enable-background="new 0 0 13 16" xml:space="preserve">
<path fill-rule="evenodd" clip-rule="evenodd" fill="#FFFFFF" d="M6.5,16l-6.2-5.7L0,2l4-2h5l4,2l-0.3,8.3L6.5,16z M12,2.3L9,1H3.9
	l-3,1.3L1,10l5.5,4.9L12,10V2.3z M5.4,13.1V10l-1.5,1.5L2.1,9.9V5.1h2v3.8l1.3,1V4.2H2l2.2-1.9h4.6L11,4.2H7.7v5.8l1.3-1V5.1h2v4.7
	l-1.8,1.6L7.7,10v3.1l-1.2,1.1L5.4,13.1z"/>
</svg>
