<?xml version="1.0" encoding="utf-8"?>
<!-- Generator: Adobe Illustrator 18.0.0, SVG Export Plug-In . SVG Version: 6.00 Build 0)  -->
<!DOCTYPE svg PUBLIC "-//W3C//DTD SVG 1.1//EN" "http://www.w3.org/Graphics/SVG/1.1/DTD/svg11.dtd">
<svg width="26px" height="32px" version="1.1" id="Layer_1" xmlns="http://www.w3.org/2000/svg" xmlns:xlink="http://www.w3.org/1999/xlink" x="0px" y="0px"
	 viewBox="0 0 13 16" enable-background="new 0 0 13 16" xml:space="preserve">
<path fill-rule="evenodd" clip-rule="evenodd" fill="#FFFFFF" d="M0.1,12.1L6.3,16l0.1,0l0.1,0l6.5-3.9l0.1,0V12l0-9.9V2l-0.1,0v0
	L10,0v0l0,0h0H6.6H3.2h0l0,0l0,0L0.1,2v0L0,2v0.1L0,12L0.1,12.1L0.1,12.1L0.1,12.1z M3.1,1H6h4h0.1l0.1,0l1.8,1.8L12,2.9V3l0,8.9V12
	L11.9,12l-5.4,3L6.4,15L6.3,15l-5.4-3L0.8,12v-0.1l0.1-8.7V3L1,3l2-2L3.1,1L3.1,1L3.1,1z M8,11l1-0.8V7.9L11,7v4l-4.5,3L2,11V7
	l1.8,0.9v2.3l1.4,0.7V6.7H4.6l-2-1L2.5,5H5V4H4V2h2h3v2H8v1h2.5l-0.4,0.7l-2,1L8,6.7V11L8,11z"/>
</svg>
